<svg width="24" height="22" viewBox="0 0 24 22" fill="none" xmlns="http://www.w3.org/2000/svg">
<path fill-rule="evenodd" clip-rule="evenodd" d="M0 0.85C0 0.380558 0.380558 0 0.85 0H3.31229C3.6956 0 4.03148 0.256548 4.13234 0.62635L4.98018 3.7351L23.0665 4.92641C23.5132 4.95584 23.8606 5.32682 23.8606 5.77458V13.1614C23.8606 13.6056 23.5186 13.9749 23.0758 14.0089L7.07091 15.2401C6.6644 15.2714 6.29295 15.0096 6.18567 14.6162L3.49954 4.76708L2.66306 1.7H0.85C0.380558 1.7 0 1.31944 0 0.85ZM9.06096 6.79942C8.9471 6.344 8.4856 6.0671 8.03018 6.18096C7.57475 6.29481 7.29786 6.75631 7.41171 7.21173L8.64286 12.1363C8.75671 12.5917 9.21821 12.8686 9.67363 12.7548C10.1291 12.6409 10.406 12.1794 10.2921 11.724L9.06096 6.79942ZM13.6564 6.47222C14.1211 6.40584 14.5517 6.72875 14.6181 7.19347L15.2336 11.5025C15.3 11.9672 14.9771 12.3978 14.5124 12.4641C14.0477 12.5305 13.6171 12.2076 13.5507 11.7429L12.9351 7.43389C12.8687 6.96917 13.1917 6.53861 13.6564 6.47222ZM20.1658 7.62115C20.1658 7.15171 19.7853 6.77115 19.3158 6.77115C18.8464 6.77115 18.4658 7.15171 18.4658 7.62115V11.3146C18.4658 11.784 18.8464 12.1646 19.3158 12.1646C19.7853 12.1646 20.1658 11.784 20.1658 11.3146V7.62115ZM11.929 19.3167C11.929 20.6766 10.8266 21.779 9.46671 21.779C8.10683 21.779 7.00443 20.6766 7.00443 19.3167C7.00443 17.9569 8.10683 16.8544 9.46671 16.8544C10.8266 16.8544 11.929 17.9569 11.929 19.3167ZM19.3164 21.779C20.6762 21.779 21.7786 20.6766 21.7786 19.3167C21.7786 17.9569 20.6762 16.8544 19.3164 16.8544C17.9565 16.8544 16.8541 17.9569 16.8541 19.3167C16.8541 20.6766 17.9565 21.779 19.3164 21.779Z" fill="#A6856A"/>
</svg>
